<svg width="29" height="31" viewBox="0 0 29 31" fill="none" xmlns="http://www.w3.org/2000/svg">
<g clip-path="url(#clip0_35_240)">
<path d="M19.0539 15.3963C19.0018 13.0537 17.1407 11.1908 14.8803 11.2185H4.11902V19.5741H11.0886V26.6007C11.0292 27.7121 11.4083 28.8008 12.1388 29.6167C12.8693 30.4326 13.8885 30.9056 14.9622 30.9269C16.0582 30.9157 17.1051 30.4536 17.8725 29.6423C18.6399 28.8309 19.0648 27.7368 19.0539 26.6007V15.3963Z" fill="#436FC8"/>
<path d="M4.22 19.666C6.55064 19.666 8.44 17.7765 8.44 15.4458C8.44 13.115 6.55064 11.2256 4.22 11.2256C1.88936 11.2256 0 13.115 0 15.4458C0 17.7765 1.88936 19.666 4.22 19.666Z" fill="#1B4599"/>
<path d="M28.9901 4.19899C28.9677 1.87311 27.1423 0 24.8984 0H13.8915C11.8005 0.21757 10.2084 2.04177 10.2084 4.2202C10.2084 6.39862 11.8005 8.22282 13.8915 8.44039H20.943V15.4599C20.8821 16.9922 21.6361 18.4359 22.9071 19.2208C24.1781 20.0057 25.7618 20.0057 27.0328 19.2208C28.3038 18.4359 29.0578 16.9922 28.9969 15.4599L28.9901 4.19899Z" fill="#B5CDFE"/>
</g>
<defs>
<clipPath id="clip0_35_240">
<rect width="29" height="31" fill="white"/>
</clipPath>
</defs>
</svg>
